<svg id="katman_1" data-name="katman 1" xmlns="http://www.w3.org/2000/svg" viewBox="0 0 404.88 125.45"><defs><style>.cls-1-kmsm-logo-yeni{fill:#7ec2cf;}.cls-2-kmsm-logo-yeni{fill:#b1b2b3;}</style></defs><title>kmsm_logo</title><path class="cls-1-kmsm-logo-yeni" d="M403.23,54.64h-4.57V95.45h4.57ZM403,50a2.9,2.9,0,0,0,0-4.16,2.83,2.83,0,0,0-4.1,0,2.9,2.9,0,0,0,0,4.16A2.94,2.94,0,0,0,403,50ZM363.23,86.5c2.34,6.5,7.62,9.78,14.12,9.78,4,0,7.2-1.06,9.43-3.22a10.88,10.88,0,0,0,3.39-8.26c0-3.22-.87-5.68-2.69-7.44s-4.69-3.63-8.84-5.45l-3.52-1.58c-.64-.35-1.4-.88-2.4-1.52a5.4,5.4,0,0,1-2.4-4.92c0-3.34,2.87-5.8,6.56-5.8A7.55,7.55,0,0,1,384,62.37l3.93-2a11.7,11.7,0,0,0-11-6.51,11.46,11.46,0,0,0-8,2.87A9.46,9.46,0,0,0,365.75,64a9.06,9.06,0,0,0,2.58,6.91,30.53,30.53,0,0,0,8.14,4.86,29.78,29.78,0,0,1,7.09,4,6.43,6.43,0,0,1,2.05,5.1,8,8,0,0,1-1.29,4.33c-1,1.7-3.46,2.87-6.91,2.87-4.81,0-8.2-2.46-10.25-7.38Zm-5.68,9V91.24H338.64V76H356V71.8H338.64V58.85h18.5V54.64H334.07V95.46Zm-31.57,0V91.24h-25.3l24.89-33.56v-3H297.23v4.21h22.2L294.36,92.64v2.82ZM258.17,81.17c0,4.8,1.4,8.49,4.21,11.12s6.5,3.87,11.07,3.87,8.26-1.29,11.07-3.87,4.22-6.32,4.22-11.12V54.64h-4.57V80.7c0,7.32-4.1,11.24-10.72,11.24S262.73,88,262.73,80.7V54.64h-4.56Zm11.3-30.11a2.9,2.9,0,0,0,0-4.16,2.83,2.83,0,0,0-4.1,0,2.92,2.92,0,1,0,4.1,4.16Zm12.06,0a2.9,2.9,0,0,0,0-4.16,2.83,2.83,0,0,0-4.1,0,2.92,2.92,0,0,0,4.1,4.16Zm-68.87,44.4V63.71L227.94,88.6l15.23-24.95V95.46h4.51V54.64h-4.16L227.94,80.52,212.36,54.64h-4.21V95.46Zm-42.23,0V58.85h11.13V54.64H154.74v4.21h11.12V95.46ZM136.87,61.72,145,81.17H128.73ZM122.76,95.46,127,85.38h19.79L151,95.46h4.92L138.63,54.64h-3.51L117.84,95.46Zm-41,0v-33l24.95,33h3.69V54.64h-4.57V87.31L81.18,54.64h-4V95.46Zm-31-33.74,8.14,19.45H42.58ZM36.61,95.46l4.21-10.08h19.8l4.22,10.08h4.92L52.48,54.64H49L31.69,95.46ZM378.43,37.91V12.24l19.63,25.67h5.31V1.63h-6.3V26.82L377.86,1.63h-5.72V37.91ZM345.54,7.51H353a5.43,5.43,0,0,1,5.47,5.72,5.7,5.7,0,0,1-6,5.94h-6.92Zm0,30.4V25H352l7.76,12.91h7.34l-8.8-14.48a10.92,10.92,0,0,0,6.61-10.3A10.79,10.79,0,0,0,361.47,5a11.42,11.42,0,0,0-8.33-3.33H339V37.91Zm-13.12,0V32h-17V22H331V16.15H315.45V7.51h16.61V1.63H309V37.91ZM277.3,7.51h6c9.1,0,13,4.68,13,12.33,0,7.45-4,12.18-13,12.18h-6Zm6.51,30.4c6,0,10.67-1.67,14-4.95s5-7.65,5-13.12S301.14,10,297.76,6.67s-8-5-14-5h-13V37.91Zm-51-18.07a12.62,12.62,0,0,1,3.64-9.21,12.3,12.3,0,0,1,9.11-3.75,12.15,12.15,0,0,1,9,3.75,12.67,12.67,0,0,1,3.7,9.21,12.68,12.68,0,0,1-3.7,9.22,12.32,12.32,0,0,1-9,3.69A12.53,12.53,0,0,1,232.8,19.84Zm12.75,18.79a18.91,18.91,0,0,0,13.64-5.41,18,18,0,0,0,5.57-13.38,17.81,17.81,0,0,0-5.62-13.37,19.62,19.62,0,0,0-27.18,0,18,18,0,0,0-5.57,13.37A18,18,0,0,0,232,33.22,18.8,18.8,0,0,0,245.55,38.63Zm-56.22-.72V13.39l12.44,19.1,12.34-19.15V37.91h6.14V1.63h-5.52L201.77,22l-13-20.35h-5.57V37.91Zm-58.81-7.66c2.29,5.16,7.23,8.28,13.95,8.28,8.27,0,12.69-4.32,12.69-10.72a9.17,9.17,0,0,0-2.28-6.51,21.15,21.15,0,0,0-7.4-4.53l-2.13-.83-1.87-.73a29.92,29.92,0,0,1-2.71-1.41,3.92,3.92,0,0,1-1.51-3.12c0-2.24,2.08-3.85,4.94-3.85a7.18,7.18,0,0,1,6.46,3.23l4.63-3.18C152.79,3,149,1,144.1,1a12,12,0,0,0-8,2.71,8.85,8.85,0,0,0-3.23,7.08,8.66,8.66,0,0,0,3.07,7.13,24.28,24.28,0,0,0,7.34,3.85,20.52,20.52,0,0,1,5.31,2.5A4,4,0,0,1,150.66,28c0,2.34-1.62,4.74-6.14,4.74a9.45,9.45,0,0,1-9.11-5.52ZM125.15,1.63h-6.5V37.91h6.5ZM91.84,7.51h7.45a5.43,5.43,0,0,1,5.46,5.72,5.7,5.7,0,0,1-6,5.94H91.84Zm0,30.4V25H98.3l7.75,12.91h7.34L104.6,23.43a10.93,10.93,0,0,0,6.6-10.3A10.79,10.79,0,0,0,107.77,5a11.42,11.42,0,0,0-8.33-3.33H85.33V37.91Zm-32-16.19h7.24c3.33,0,5.72,2.18,5.72,5.1S70.45,32,67.17,32H59.88Zm0-14.21h5.78a4.31,4.31,0,0,1,4.63,4.27,4.37,4.37,0,0,1-4.68,4.47H59.88Zm8.38,30.4a10.75,10.75,0,0,0,7.86-3,10.26,10.26,0,0,0,3.18-7.71c0-4.63-2.66-8.17-7.29-9,2.92-1.1,4.63-3.8,4.63-7.29a8.4,8.4,0,0,0-3-6.61,10.2,10.2,0,0,0-7.18-2.65H53.38V37.91ZM45.1,1.63H38.59V37.91H45.1Zm-35,36.28V27.29l4.58-5.05L26,37.91h7.6L19.07,17.61l14.11-16h-7.7L10.12,19V1.63H3.62V37.91ZM1,86.5c2.34,6.5,7.61,9.78,14.11,9.78,4,0,7.21-1.06,9.43-3.22a10.85,10.85,0,0,0,3.4-8.26c0-3.22-.88-5.68-2.69-7.44s-4.69-3.63-8.85-5.45l-3.51-1.58c-.64-.35-1.41-.88-2.4-1.52a5.37,5.37,0,0,1-2.4-4.92c0-3.34,2.87-5.8,6.56-5.8a7.55,7.55,0,0,1,7.14,4.28l3.93-2a11.71,11.71,0,0,0-11-6.51,11.44,11.44,0,0,0-8,2.87A9.43,9.43,0,0,0,3.52,64a9.09,9.09,0,0,0,2.57,6.91,30.7,30.7,0,0,0,8.14,4.86,29.57,29.57,0,0,1,7.09,4,6.4,6.4,0,0,1,2.05,5.1,7.89,7.89,0,0,1-1.29,4.33c-1,1.7-3.45,2.87-6.91,2.87-4.8,0-8.2-2.46-10.25-7.38Z"/><path class="cls-2-kmsm-logo-yeni" d="M325.65,123.31a2.92,2.92,0,0,1-1.3-.3,3.35,3.35,0,0,1-1.07-.79,3.89,3.89,0,0,1-.72-1.18,4.15,4.15,0,0,1-.26-1.46v-8.73h.88v8.73a3.08,3.08,0,0,0,.2,1.11,2.68,2.68,0,0,0,.53.9,2.43,2.43,0,0,0,.78.61,2.12,2.12,0,0,0,1.92,0,2.43,2.43,0,0,0,.78-.61,2.68,2.68,0,0,0,.53-.9,3.08,3.08,0,0,0,.2-1.11v-8.73H329v8.73a4.15,4.15,0,0,1-.26,1.46,3.73,3.73,0,0,1-.73,1.18,3.35,3.35,0,0,1-1.07.79,2.84,2.84,0,0,1-1.29.3m4.49-12.46v8.73a5.25,5.25,0,0,1-.35,1.9,5,5,0,0,1-1,1.54,4.5,4.5,0,0,1-1.44,1,4.08,4.08,0,0,1-3.48,0,4.35,4.35,0,0,1-1.43-1,4.86,4.86,0,0,1-1-1.54,5.25,5.25,0,0,1-.35-1.9v-8.73h.89v8.73a4.2,4.2,0,0,0,1.05,2.82,3.7,3.7,0,0,0,1.15.85,3.32,3.32,0,0,0,2.8,0,3.7,3.7,0,0,0,1.15-.85,4,4,0,0,0,.77-1.27,4.19,4.19,0,0,0,.29-1.55v-8.73Zm-30.9,0h.88v13.6h-.88Zm1.13,13.6v-13l5.27,13h-1l-.25-.63L301.26,116v8.45Zm9.84-13.6h1l-5.39,13.26-5.41-13.26h1l.26.62,4.19,10.29L310,111.47Zm-3.35,13.6h-.94l5.25-13v13h-.88V116l-3.18,7.82Zm4.57-13.6h.88v13.6h-.88Zm-35.73,0h8.86v.88H275.7Zm4.55,13.6V112h4.31v.88h-3.43v11.59Zm-4.55-11.59V112H280v12.47h-.88V112.86Zm-11.28,6.69a2.81,2.81,0,0,0,.39,1.07,3.8,3.8,0,0,0,.72.87,3.31,3.31,0,0,0,1,.57,3.26,3.26,0,0,0,1.16.21v.88a4.06,4.06,0,0,1-1.63-.33,4.22,4.22,0,0,1-1.33-.9,4.27,4.27,0,0,1-.9-1.34,4,4,0,0,1-.33-1.62v-.1a3.28,3.28,0,0,0,1.23-.39,4,4,0,0,0,1-.78,3.79,3.79,0,0,0,.68-1.08,3.64,3.64,0,0,0,0-2.7,3.59,3.59,0,0,0-.77-1.13,3.64,3.64,0,0,0-1.14-.77,3.43,3.43,0,0,0-1.4-.28H259.5v12.72h-.88v-13.6H263a4.23,4.23,0,0,1,1.74.35,4.45,4.45,0,0,1,1.42,1,4.51,4.51,0,0,1,1,1.42,4.22,4.22,0,0,1,.35,1.73,4.29,4.29,0,0,1-.23,1.43,4.92,4.92,0,0,1-.65,1.22,4.47,4.47,0,0,1-1,1A4.77,4.77,0,0,1,264.42,119.55Zm-1.2-.59a4.39,4.39,0,0,0,1.31,3.14,4.5,4.5,0,0,0,3.14,1.31v.88a5.37,5.37,0,0,1-1.89-.34,5.41,5.41,0,0,1-2.77-2.39,5,5,0,0,1-.61-1.8h-1.77v4.69h-.88v-5.57h3.47Zm-2.59-1.22H263a2.38,2.38,0,0,0,1-.19,2.75,2.75,0,0,0,.77-.52,2.46,2.46,0,0,0,.53-.77,2.3,2.3,0,0,0,.19-1,2.37,2.37,0,0,0-.19-1,2.57,2.57,0,0,0-1.3-1.3,2.39,2.39,0,0,0-1-.2h-2.41Zm5.75-2.43a3.11,3.11,0,0,1-.27,1.29,3.26,3.26,0,0,1-.71,1,3.35,3.35,0,0,1-2.36,1h-3.29V112H263a3.19,3.19,0,0,1,1.3.27,3.35,3.35,0,0,1,1.06.71,3.24,3.24,0,0,1,.71,1.06A3.14,3.14,0,0,1,266.38,115.31Zm-17.13,7.82-.84.28.33,1h.92Zm-3.1-9.84,3.1,9.84-.84.28-3.73-11.84L241,123.41l-.84-.28,3.1-9.84.78-2.44h1.39Zm-3,7h3.11l-1.57-4.94Zm-1.22.88,2.76-8.76,2.77,8.76Zm-.08.26h5.69l1,3h-1l-.21-.71-.45-1.43h-4.39l-.45,1.43-.22.71h-.92Zm-1.72,1.7.84.28-.33,1h-.92ZM223.7,110.85v12l-6.92-11.29v12.9h-.88v-13.6h1.49l.74,1.21,4.69,7.64v-8.85Zm.25,0h.88v13.6h-1.48l-.61-1-4.82-7.86v8.86H217v-12L224,123.74Zm-20.26,8.7a3.19,3.19,0,0,0,.39,1.07,3.59,3.59,0,0,0,.73.87,3.34,3.34,0,0,0,2.13.78v.88a4,4,0,0,1-1.62-.33,4.22,4.22,0,0,1-1.33-.9,4.27,4.27,0,0,1-.9-1.34,3.89,3.89,0,0,1-.34-1.62v-.1a3.33,3.33,0,0,0,1.24-.39,3.8,3.8,0,0,0,1-.78,3.59,3.59,0,0,0,.68-1.08,3.34,3.34,0,0,0,.24-1.3,3.5,3.5,0,0,0-.28-1.4,3.57,3.57,0,0,0-.76-1.13,3.64,3.64,0,0,0-1.14-.77,3.47,3.47,0,0,0-1.4-.28h-3.55v12.72h-.88v-13.6h4.43a4.39,4.39,0,0,1,3.15,1.31,4.53,4.53,0,0,1,1,1.42,4.38,4.38,0,0,1,.35,1.73,4.29,4.29,0,0,1-.24,1.43,4.34,4.34,0,0,1-.65,1.22,4.42,4.42,0,0,1-1,1A4.68,4.68,0,0,1,203.69,119.55ZM202.5,119a4.22,4.22,0,0,0,.35,1.73,4.49,4.49,0,0,0,1,1.41,4.44,4.44,0,0,0,1.41,1,4.22,4.22,0,0,0,1.73.36v.88a5.45,5.45,0,0,1-1.89-.34,5.36,5.36,0,0,1-1.59-1,5.47,5.47,0,0,1-1.18-1.43,5.19,5.19,0,0,1-.61-1.8h-1.76v4.69H199v-5.57h3.47Zm-2.59-1.22h2.41a2.34,2.34,0,0,0,1-.19,2.8,2.8,0,0,0,.78-.52,2.43,2.43,0,0,0,.52-.77,2.31,2.31,0,0,0,.2-1,2.38,2.38,0,0,0-.2-1,2.55,2.55,0,0,0-.52-.77,2.63,2.63,0,0,0-.78-.53,2.34,2.34,0,0,0-1-.2h-2.41Zm5.74-2.43a3.27,3.27,0,0,1-.26,1.29,3.46,3.46,0,0,1-.72,1,3.35,3.35,0,0,1-2.35,1H199V112h3.29a3.11,3.11,0,0,1,1.29.27,3.24,3.24,0,0,1,1.06.71,3.43,3.43,0,0,1,.72,1.06A3.3,3.3,0,0,1,205.65,115.31Zm-22.83,7.12h6.1v.88h-7v-5.55h6v.9h-5.16Zm-1.13-10.7v11.83h7.23v.89H180.8v-13.6h7.67v.88Zm6.78,1.13h-5.65v3.79H188v.88h-6V112h6.53Zm-23.36,10.7a5.71,5.71,0,0,0,2.29-.46,5.81,5.81,0,0,0,1.88-1.26,6.14,6.14,0,0,0,1.28-1.88,5.8,5.8,0,0,0,.47-2.32,5.72,5.72,0,0,0-.47-2.29,6.14,6.14,0,0,0-1.28-1.88,6,6,0,0,0-1.88-1.27,5.56,5.56,0,0,0-2.29-.47h-2v11.83Zm0-12.71a6.74,6.74,0,0,1,2.65.53,6.89,6.89,0,0,1,3.61,3.62,6.75,6.75,0,0,1,0,5.29,6.89,6.89,0,0,1-3.61,3.62,6.75,6.75,0,0,1-2.65.54h-2.9v-13.6Zm0,11.58a4.87,4.87,0,0,0,3.37-1.39,5.17,5.17,0,0,0,1-1.52,4.82,4.82,0,0,0,0-3.75,5.17,5.17,0,0,0-1-1.52,4.87,4.87,0,0,0-3.37-1.39h-.88v9.57Zm0-10.45a5.49,5.49,0,0,1,2.21.45,5.86,5.86,0,0,1,1.79,1.22,5.71,5.71,0,0,1,1.21,1.79,5.63,5.63,0,0,1,0,4.41,5.71,5.71,0,0,1-1.21,1.79,5.86,5.86,0,0,1-1.79,1.22,5.49,5.49,0,0,1-2.21.45h-1.76V112Zm-18,10.45a3.7,3.7,0,0,0,1.65-.38,4.23,4.23,0,0,0,1.34-1,5,5,0,0,0,.91-1.52,5.49,5.49,0,0,0,0-3.75,5,5,0,0,0-.91-1.52,4.23,4.23,0,0,0-1.34-1,3.73,3.73,0,0,0-3.28,0,4.06,4.06,0,0,0-1.35,1,5,5,0,0,0-.9,1.52,5.49,5.49,0,0,0,0,3.75,5,5,0,0,0,.9,1.52,4.06,4.06,0,0,0,1.35,1A3.68,3.68,0,0,0,147.12,122.43Zm0-10.45a4.5,4.5,0,0,1,2,.45,5.4,5.4,0,0,1,1.63,1.22,5.58,5.58,0,0,1,1.09,1.79,6.13,6.13,0,0,1,0,4.41,5.58,5.58,0,0,1-1.09,1.79,5.4,5.4,0,0,1-1.63,1.22,4.6,4.6,0,0,1-4,0,5.32,5.32,0,0,1-1.61-1.22,5.44,5.44,0,0,1-1.1-1.79,6.28,6.28,0,0,1,0-4.41,5.44,5.44,0,0,1,1.1-1.79,5.32,5.32,0,0,1,1.61-1.22A4.49,4.49,0,0,1,147.12,112Zm0,11.58a4.77,4.77,0,0,0,2.09-.46,5.5,5.5,0,0,0,1.7-1.26,6,6,0,0,0,1.16-1.88,6.59,6.59,0,0,0,0-4.63,6.12,6.12,0,0,0-1.16-1.88,5.5,5.5,0,0,0-1.7-1.26,4.77,4.77,0,0,0-2.09-.46,4.82,4.82,0,0,0-2.08.46,5.27,5.27,0,0,0-1.7,1.26,6.45,6.45,0,0,0-1.15,6.51,6.17,6.17,0,0,0,1.15,1.88,5.27,5.27,0,0,0,1.7,1.26A4.82,4.82,0,0,0,147.12,123.56Zm0-12.71a5.74,5.74,0,0,1,2.43.53,6.53,6.53,0,0,1,2,1.46,6.83,6.83,0,0,1,1.34,2.16,7.38,7.38,0,0,1,0,5.29,6.83,6.83,0,0,1-1.34,2.16,6.53,6.53,0,0,1-2,1.46,5.75,5.75,0,0,1-2.43.54,5.67,5.67,0,0,1-2.42-.54,6.61,6.61,0,0,1-2-1.46,7.18,7.18,0,0,1,0-9.61,6.61,6.61,0,0,1,2-1.46A5.67,5.67,0,0,1,147.12,110.85Zm-28.16,0h.88v13.6H119Zm1.14,13.6v-13l5.27,13h-1l-.26-.63L121,116v8.45Zm9.84-13.6h1l-5.39,13.26-5.41-13.26h1l.25.62,4.2,10.29,4.17-10.29Zm-3.35,13.6h-.94l5.25-13v13H130V116l-3.17,7.82Zm4.56-13.6H132v13.6h-.88Zm-31,5.27a4,4,0,0,1,1.62.32,4.27,4.27,0,0,1,1.32.89,4.22,4.22,0,0,1,.9,1.33,3.81,3.81,0,0,1,.34,1.61,3.9,3.9,0,0,1-.34,1.63,4.22,4.22,0,0,1-.9,1.33,4.1,4.1,0,0,1-1.32.89,4,4,0,0,1-1.62.33H96.7v-.89h3.41a3.2,3.2,0,0,0,1.27-.25,3.42,3.42,0,0,0,1.05-.71,3.53,3.53,0,0,0,.7-1,3.27,3.27,0,0,0,.26-1.29,3.19,3.19,0,0,0-.26-1.26,3.28,3.28,0,0,0-1.75-1.76,3.2,3.2,0,0,0-1.27-.25,2.45,2.45,0,0,1-1-.2,2.52,2.52,0,0,1-.79-.54,2.36,2.36,0,0,1-.54-.8,2.48,2.48,0,0,1,0-1.95,2.59,2.59,0,0,1,1.33-1.33,2.45,2.45,0,0,1,1-.2h2.61v.88h-2.61a1.63,1.63,0,1,0,0,3.26Zm0,2a3.53,3.53,0,0,1-1.42-.29,3.66,3.66,0,0,1-1.15-.78,3.68,3.68,0,0,1-.79-4,3.73,3.73,0,0,1,1.94-1.94,3.53,3.53,0,0,1,1.42-.28h2.61v.88h-2.61a2.81,2.81,0,0,0-1.08.21,3,3,0,0,0-.88.59,2.78,2.78,0,0,0,0,3.92A2.78,2.78,0,0,0,99,117a2.81,2.81,0,0,0,1.08.21,2.93,2.93,0,0,1,1.18.24,3,3,0,0,1,1,.65,3.07,3.07,0,0,1,.65,1,2.7,2.7,0,0,1,.25,1.17,2.86,2.86,0,0,1-.25,1.19,3.24,3.24,0,0,1-.65,1,3.1,3.1,0,0,1-1,.64,2.93,2.93,0,0,1-1.18.24H96.7v-.88h3.41a2,2,0,0,0,.82-.17,2.19,2.19,0,0,0,.69-.46,2.34,2.34,0,0,0,.47-.69,2,2,0,0,0,.18-.84,1.92,1.92,0,0,0-.18-.82,2.34,2.34,0,0,0-.47-.69,2.19,2.19,0,0,0-.69-.46A2,2,0,0,0,100.11,118.14ZM83,123.31a3,3,0,0,1-1.31-.3,3.31,3.31,0,0,1-1.06-.79,3.89,3.89,0,0,1-.72-1.18,4,4,0,0,1-.27-1.46v-8.73h.89v8.73a3.08,3.08,0,0,0,.19,1.11,2.86,2.86,0,0,0,.53.9,2.47,2.47,0,0,0,.79.61,2.12,2.12,0,0,0,1.92,0,2.43,2.43,0,0,0,.78-.61,2.86,2.86,0,0,0,.53-.9,3.08,3.08,0,0,0,.2-1.11v-8.73h.88v8.73A4,4,0,0,1,86,121a3.7,3.7,0,0,1-.72,1.18,3.58,3.58,0,0,1-1.07.79A2.91,2.91,0,0,1,83,123.31Zm4.49-12.46v8.73a5.06,5.06,0,0,1-.36,1.9,4.67,4.67,0,0,1-1,1.54,4.35,4.35,0,0,1-1.43,1,4.1,4.1,0,0,1-3.49,0,4.46,4.46,0,0,1-1.43-1,5,5,0,0,1-1-1.54,5.25,5.25,0,0,1-.35-1.9v-8.73h.88v8.73a4.28,4.28,0,0,0,1.06,2.82,3.7,3.7,0,0,0,1.15.85,3.15,3.15,0,0,0,1.4.31,3.22,3.22,0,0,0,1.4-.31,3.55,3.55,0,0,0,1.14-.85,4,4,0,0,0,.78-1.27,4.18,4.18,0,0,0,.28-1.55v-8.73Zm-21.19,8.7a3.19,3.19,0,0,0,.39,1.07,3.59,3.59,0,0,0,.73.87,3.34,3.34,0,0,0,2.14.78v.88a4.06,4.06,0,0,1-1.63-.33,4.11,4.11,0,0,1-1.33-.9,4.47,4.47,0,0,1-.91-1.34,4,4,0,0,1-.33-1.62v-.1a3.28,3.28,0,0,0,1.24-.39,4.21,4.21,0,0,0,1-.78,3.76,3.76,0,0,0,.67-1.08,3.58,3.58,0,0,0-.8-3.83,3.64,3.64,0,0,0-1.14-.77,3.47,3.47,0,0,0-1.4-.28H61.33v12.72h-.88v-13.6h4.43a4.22,4.22,0,0,1,1.73.35,4.39,4.39,0,0,1,1.43,1,4.48,4.48,0,0,1,.95,1.42,4.22,4.22,0,0,1,.36,1.73,4.29,4.29,0,0,1-.24,1.43,4.58,4.58,0,0,1-.64,1.22,4.55,4.55,0,0,1-2.22,1.59ZM65.06,119a4.22,4.22,0,0,0,.35,1.73,4.33,4.33,0,0,0,1,1.41,4.44,4.44,0,0,0,1.41,1,4.24,4.24,0,0,0,1.74.36v.88a5.47,5.47,0,0,1-1.9-.34A5.36,5.36,0,0,1,66,123a5.28,5.28,0,0,1-1.18-1.43,5.4,5.4,0,0,1-.61-1.8H62.47v4.69h-.88v-5.57h3.47Zm-2.59-1.22h2.41a2.3,2.3,0,0,0,1-.19,2.61,2.61,0,0,0,.77-.52,2.43,2.43,0,0,0,.73-1.72,2.38,2.38,0,0,0-.2-1,2.41,2.41,0,0,0-.53-.77,2.46,2.46,0,0,0-.77-.53,2.31,2.31,0,0,0-1-.2H62.47Zm5.74-2.43A3.1,3.1,0,0,1,68,116.6a3.46,3.46,0,0,1-.72,1,3.35,3.35,0,0,1-2.35,1H61.59V112h3.29a3.11,3.11,0,0,1,1.29.27,3.24,3.24,0,0,1,1.06.71A3.43,3.43,0,0,1,68,114,3.13,3.13,0,0,1,68.21,115.31Zm-23.75,2.43h2.41a2.3,2.3,0,0,0,1-.19,2.66,2.66,0,0,0,.78-.52,2.46,2.46,0,0,0,.53-.77,2.3,2.3,0,0,0,.19-1,2.37,2.37,0,0,0-.19-1,2.58,2.58,0,0,0-.53-.77,2.5,2.5,0,0,0-.78-.53,2.31,2.31,0,0,0-1-.2H44.46Zm5.74-2.43a3.1,3.1,0,0,1-.26,1.29,3.46,3.46,0,0,1-.72,1,3.3,3.3,0,0,1-2.35,1H43.58V112h3.29a3.19,3.19,0,0,1,1.3.27,3.3,3.3,0,0,1,1,.71,3.43,3.43,0,0,1,.72,1.06A3.13,3.13,0,0,1,50.2,115.31Zm-3.33-4.46a4.26,4.26,0,0,1,1.74.35,4.45,4.45,0,0,1,1.42,1,4.68,4.68,0,0,1,1,1.42,4.38,4.38,0,0,1,.35,1.73,4.43,4.43,0,0,1-.35,1.74,4.63,4.63,0,0,1-1,1.41,4.78,4.78,0,0,1-1.42,1,4.26,4.26,0,0,1-1.74.35H44.46v4.69h-.88v-5.57h3.29a3.43,3.43,0,0,0,1.4-.28,3.64,3.64,0,0,0,1.14-.77,3.41,3.41,0,0,0,.76-1.13,3.36,3.36,0,0,0,.29-1.39,3.51,3.51,0,0,0-.29-1.4,3.41,3.41,0,0,0-.76-1.13,3.64,3.64,0,0,0-1.14-.77,3.43,3.43,0,0,0-1.4-.28H43.33v12.72h-.89v-13.6Zm-13.46,0-.88,1.5-3.19,5.57v6.53h-.89v-6.76l3.94-6.84Zm-5.21,6.84v6.76h-.88v-6.53l-3.22-5.57-.86-1.5h1Zm3.35-5.9-3.23,5.6-3.77-6.54h1l.3.51,2.45,4.27,2.47-4.27Zm-.47-.94h1l-.55.94-.76-.43Zm359.39,0h.88v13.59h-.88Zm1.14,13.59v-13l5.27,13h-1l-.25-.62L392.49,116v8.44Zm9.83-13.59h1L397,124.11l-5.41-13.26h1l.25.62,4.2,10.29,4.17-10.29Zm-3.35,13.59h-.94l5.26-13v13h-.89V116l-3.17,7.82Zm4.57-13.59h.88v13.59h-.88ZM377,123.31a2.92,2.92,0,0,1-1.3-.3,3.2,3.2,0,0,1-1.07-.79,3.82,3.82,0,0,1-.72-1.19,4.08,4.08,0,0,1-.26-1.44v-8.74h.88v8.74a3.07,3.07,0,0,0,.2,1.1,2.86,2.86,0,0,0,.53.9,2.43,2.43,0,0,0,.78.61,2.12,2.12,0,0,0,1.92,0,2.58,2.58,0,0,0,.79-.61,2.84,2.84,0,0,0,.52-.9,2.87,2.87,0,0,0,.2-1.1v-8.74h.88v8.74A4.08,4.08,0,0,1,380,121a3.67,3.67,0,0,1-.73,1.19,3.2,3.2,0,0,1-1.07.79A2.84,2.84,0,0,1,377,123.31Zm4.49-12.46v8.74a5.24,5.24,0,0,1-.35,1.89,5,5,0,0,1-1,1.54,4.57,4.57,0,0,1-1.43,1,4.06,4.06,0,0,1-1.75.38,4,4,0,0,1-1.74-.38,4.35,4.35,0,0,1-1.43-1,4.67,4.67,0,0,1-1-1.54,5,5,0,0,1-.36-1.89v-8.74h.88v8.74a4.28,4.28,0,0,0,1.06,2.81,3.7,3.7,0,0,0,1.15.85,3.32,3.32,0,0,0,2.8,0,3.7,3.7,0,0,0,1.15-.85,4,4,0,0,0,.77-1.27,4.17,4.17,0,0,0,.29-1.54v-8.74ZM358,122.43h6.1v.88h-7v-5.55h6v.9H358Zm-1.14-10.7v11.83h7.24v.88H356V110.85h7.67v.88Zm6.79,1.13H358v3.79h5.16v.88h-6V112h6.53Zm-20.81,3.26a4.13,4.13,0,0,1,1.61.32,4.2,4.2,0,0,1,1.33.89,4.59,4.59,0,0,1,.9,1.33,4,4,0,0,1,.33,1.61,4.06,4.06,0,0,1-.33,1.63,4.59,4.59,0,0,1-.9,1.33,4,4,0,0,1-1.33.89,4,4,0,0,1-1.61.32h-3.41v-.88h3.41a3.18,3.18,0,0,0,1.26-.25,3.28,3.28,0,0,0,1.75-1.76,3.23,3.23,0,0,0,0-2.54,3.28,3.28,0,0,0-1.75-1.76,3.18,3.18,0,0,0-1.26-.25,2.42,2.42,0,0,1-1-.2,2.57,2.57,0,0,1-.8-.54,2.36,2.36,0,0,1-.54-.8,2.6,2.6,0,0,1,0-1.95,2.52,2.52,0,0,1,.54-.79,2.57,2.57,0,0,1,.8-.54,2.42,2.42,0,0,1,1-.2h2.6v.88h-2.6a1.62,1.62,0,0,0-1.63,1.63,1.6,1.6,0,0,0,.47,1.16A1.58,1.58,0,0,0,342.82,116.12Zm0,2a3.58,3.58,0,0,1-1.43-.29,3.77,3.77,0,0,1-1.15-.78,3.63,3.63,0,0,1-.78-1.17,3.6,3.6,0,0,1,0-2.83,3.82,3.82,0,0,1,.78-1.16,3.77,3.77,0,0,1,1.15-.78,3.58,3.58,0,0,1,1.43-.28h2.6v.88h-2.6a2.73,2.73,0,0,0-2,.8,2.67,2.67,0,0,0-.59.88,2.76,2.76,0,0,0,0,2.16,2.74,2.74,0,0,0,1.47,1.47,2.81,2.81,0,0,0,1.08.21,2.88,2.88,0,0,1,1.17.24,3.13,3.13,0,0,1,1.62,1.61,2.85,2.85,0,0,1,.24,1.17,3,3,0,0,1-.24,1.19,3.09,3.09,0,0,1-.66,1,3.06,3.06,0,0,1-2.13.88h-3.41v-.88h3.41a2.11,2.11,0,0,0,.82-.17,2.15,2.15,0,0,0,.68-.46,2.38,2.38,0,0,0,.48-.69,2.14,2.14,0,0,0,.17-.84,2.08,2.08,0,0,0-.17-.82,2.38,2.38,0,0,0-.48-.69,2.15,2.15,0,0,0-.68-.46A2.1,2.1,0,0,0,342.82,118.14ZM11.17,122.43a3.87,3.87,0,0,0,2.69-1.08l1.37,1.47a5.92,5.92,0,0,1-4.06,1.63,5.67,5.67,0,0,1-2.42-.54,6.61,6.61,0,0,1-2-1.46,7.18,7.18,0,0,1,0-9.61,6.61,6.61,0,0,1,2-1.46,5.67,5.67,0,0,1,2.42-.53,5.85,5.85,0,0,1,4.06,1.62l-.61.65a5.05,5.05,0,0,0-1.61-1,5,5,0,0,0-1.84-.35,4.74,4.74,0,0,0-2.07.46,5.21,5.21,0,0,0-1.71,1.26A6.45,6.45,0,0,0,6.24,120a6.17,6.17,0,0,0,1.15,1.88A5.21,5.21,0,0,0,9.1,123.1a4.94,4.94,0,0,0,3.91.11,5.05,5.05,0,0,0,1.61-1l-.16-.18a5.06,5.06,0,0,1-1.53,1,4.87,4.87,0,0,1-1.76.34,4.49,4.49,0,0,1-2-.45,5.49,5.49,0,0,1-1.62-1.22,5.77,5.77,0,0,1-1.09-1.79,6.28,6.28,0,0,1,0-4.41,5.77,5.77,0,0,1,1.09-1.79,5.49,5.49,0,0,1,1.62-1.22,4.49,4.49,0,0,1,2-.45,4.87,4.87,0,0,1,1.76.34,5.23,5.23,0,0,1,1.53,1l.08-.07-.68.72a3.87,3.87,0,0,0-2.69-1.08,3.68,3.68,0,0,0-1.63.38,4.06,4.06,0,0,0-1.35,1,5,5,0,0,0-.9,1.52,5.49,5.49,0,0,0,0,3.75,5,5,0,0,0,.9,1.52,4.06,4.06,0,0,0,1.35,1A3.68,3.68,0,0,0,11.17,122.43Z"/></svg>